<svg xmlns="http://www.w3.org/2000/svg" viewBox="0 0 195 195"><defs><style>.cls-1{fill:#fff;}</style></defs><g id="圖層_2" data-name="圖層 2"><g id="圖層_1-2" data-name="圖層 1"><rect class="cls-1" width="195" height="195"/><path d="M20.61,127.29A42.14,42.14,0,0,1,14.66,118a51.18,51.18,0,0,1-3.75-10.87,46.92,46.92,0,0,1-1.16-11.3,47.05,47.05,0,0,1,1.16-11.31,50.88,50.88,0,0,1,3.75-10.88,42.48,42.48,0,0,1,5.95-9.25l6.06,4.44a42,42,0,0,0-5.73,8.8A37.24,37.24,0,0,0,18,86.57a48.88,48.88,0,0,0,0,18.57,37,37,0,0,0,2.92,8.9,41.78,41.78,0,0,0,5.73,8.81Z"/><path d="M56.85,111.27l-5-5,9.84-9.48-9.84-9.48,5-5L71.37,96.75Z"/><path d="M96.57,116.43a15.34,15.34,0,0,1-11.29-5,13.82,13.82,0,0,1-3.11-5.58l7.92-2.1a6.33,6.33,0,0,0,2.48,3.68,6.75,6.75,0,0,0,4,1.3,6.66,6.66,0,0,0,3.41-.9,6.9,6.9,0,0,0,2.46-2.43,6.57,6.57,0,0,0,.91-3.39,6.75,6.75,0,0,0-1.9-4.79,6.5,6.5,0,0,0-4.88-2,6,6,0,0,0-1.74.26,7.7,7.7,0,0,0-1.62.7l-3.66-6.42,13.74-11.4.6,1.74h-20V72.45h27v7.68L100.17,90.45l-.06-2.28a12.88,12.88,0,0,1,10.18,7.57,15.15,15.15,0,0,1,1.34,6.29,13.34,13.34,0,0,1-2.07,7.33,15.06,15.06,0,0,1-5.49,5.17A15.26,15.26,0,0,1,96.57,116.43Z"/><path d="M138.15,111.27,123.63,96.75l14.52-14.52,5,5-9.84,9.48,9.84,9.48Z"/><path d="M174.39,127.29l-6.06-4.44a41.78,41.78,0,0,0,5.73-8.81,37,37,0,0,0,2.92-8.9,48.88,48.88,0,0,0,0-18.57,37.24,37.24,0,0,0-2.92-8.92,42,42,0,0,0-5.73-8.8l6.06-4.44a42.48,42.48,0,0,1,6,9.25,50.88,50.88,0,0,1,3.75,10.88,47.05,47.05,0,0,1,1.16,11.31,46.92,46.92,0,0,1-1.16,11.3A51.18,51.18,0,0,1,180.34,118,42.14,42.14,0,0,1,174.39,127.29Z"/><rect x="66.19" y="125.89" width="62" height="7"/></g></g></svg>